# xmcd CD database file
#
# Track frame offsets:
#	150
#	23502
#	43992
#
# Disc length: 894 seconds
#
# Revision: 13
# Processed by: cddbd v1.5.1PL2 Copyright (c) Steve Scherf et al.
# Submitted via: CDex 1.51
#
DISCID=1c037c03
DTITLE=宇多田ヒカル - Can You Keep A Secret？
DYEAR=2001
DGENRE=J-Pop
TTITLE0=Can You Keep A Secret？
TTITLE1=蹴っ飛ばせ！
TTITLE2=Can You Keep A Secret？ [Original Karaoke]
EXTD=YEAR: 2001/02/16
EXTT0=
EXTT1=
EXTT2=
PLAYORDER=
